<?xml version="1.0" encoding="UTF-8" ?>
<svg version="1.1" width="384" height="108" xmlns="http://www.w3.org/2000/svg" shape-rendering="crispEdges">
<rect x="0" y="0" width="48" height="30" fill="#302098" />
<rect x="48" y="0" width="6" height="6" fill="#2F1F97" />
<rect x="54" y="0" width="6" height="6" fill="#2E1F94" />
<rect x="60" y="0" width="6" height="18" fill="#2D1E91" />
<rect x="66" y="0" width="6" height="12" fill="#2D1E8E" />
<rect x="72" y="0" width="6" height="6" fill="#2C1D8C" />
<rect x="78" y="0" width="6" height="12" fill="#2B1C89" />
<rect x="84" y="0" width="6" height="18" fill="#2A1C86" />
<rect x="90" y="0" width="6" height="12" fill="#291B83" />
<rect x="96" y="0" width="6" height="6" fill="#281B81" />
<rect x="102" y="0" width="6" height="12" fill="#271A7E" />
<rect x="108" y="0" width="6" height="6" fill="#271A7B" />
<rect x="114" y="0" width="6" height="6" fill="#261979" />
<rect x="120" y="0" width="6" height="12" fill="#251876" />
<rect x="126" y="0" width="6" height="12" fill="#241873" />
<rect x="132" y="0" width="6" height="18" fill="#231770" />
<rect x="138" y="0" width="6" height="6" fill="#22176E" />
<rect x="144" y="0" width="6" height="12" fill="#21166B" />
<rect x="150" y="0" width="6" height="6" fill="#211668" />
<rect x="156" y="0" width="6" height="6" fill="#201566" />
<rect x="162" y="0" width="6" height="6" fill="#1F1463" />
<rect x="168" y="0" width="6" height="12" fill="#1E1460" />
<rect x="174" y="0" width="6" height="30" fill="#1D135D" />
<rect x="180" y="0" width="6" height="6" fill="#1C135B" />
<rect x="186" y="0" width="6" height="12" fill="#1B1258" />
<rect x="192" y="0" width="6" height="6" fill="#1B1255" />
<rect x="198" y="0" width="6" height="6" fill="#1A1153" />
<rect x="204" y="0" width="6" height="6" fill="#191050" />
<rect x="210" y="0" width="6" height="12" fill="#18104D" />
<rect x="216" y="0" width="6" height="18" fill="#170F4A" />
<rect x="222" y="0" width="6" height="6" fill="#160F48" />
<rect x="228" y="0" width="6" height="12" fill="#150E45" />
<rect x="234" y="0" width="6" height="6" fill="#150E42" />
<rect x="240" y="0" width="6" height="12" fill="#140D3F" />
<rect x="246" y="0" width="6" height="6" fill="#130C3D" />
<rect x="252" y="0" width="6" height="12" fill="#120C3A" />
<rect x="258" y="0" width="6" height="18" fill="#110B37" />
<rect x="264" y="0" width="6" height="6" fill="#100B35" />
<rect x="270" y="0" width="6" height="12" fill="#0F0A32" />
<rect x="276" y="0" width="6" height="6" fill="#0F0A2F" />
<rect x="282" y="0" width="6" height="12" fill="#0E092C" />
<rect x="288" y="0" width="6" height="6" fill="#0D082A" />
<rect x="294" y="0" width="6" height="12" fill="#0C0827" />
<rect x="300" y="0" width="6" height="18" fill="#0B0724" />
<rect x="306" y="0" width="6" height="6" fill="#0A0722" />
<rect x="312" y="0" width="6" height="12" fill="#09061F" />
<rect x="318" y="0" width="6" height="6" fill="#09061C" />
<rect x="324" y="0" width="6" height="12" fill="#080519" />
<rect x="330" y="0" width="6" height="6" fill="#070417" />
<rect x="336" y="0" width="6" height="12" fill="#060414" />
<rect x="342" y="0" width="6" height="18" fill="#050311" />
<rect x="348" y="0" width="6" height="6" fill="#04030F" />
<rect x="354" y="0" width="6" height="6" fill="#03020C" />
<rect x="360" y="0" width="6" height="6" fill="#030209" />
<rect x="366" y="0" width="6" height="12" fill="#020106" />
<rect x="372" y="0" width="6" height="6" fill="#010004" />
<rect x="378" y="0" width="6" height="12" fill="#000001" />
<rect x="48" y="6" width="6" height="24" fill="#2F1F96" />
<rect x="54" y="6" width="6" height="24" fill="#2E1F93" />
<rect x="72" y="6" width="6" height="12" fill="#2C1D8B" />
<rect x="96" y="6" width="6" height="12" fill="#281B80" />
<rect x="108" y="6" width="6" height="12" fill="#26197B" />
<rect x="114" y="6" width="6" height="12" fill="#261978" />
<rect x="138" y="6" width="6" height="12" fill="#22176D" />
<rect x="150" y="6" width="6" height="12" fill="#201568" />
<rect x="156" y="6" width="6" height="12" fill="#201565" />
<rect x="162" y="6" width="6" height="18" fill="#1F1462" />
<rect x="180" y="6" width="6" height="6" fill="#1C135A" />
<rect x="192" y="6" width="6" height="12" fill="#1A1155" />
<rect x="198" y="6" width="6" height="6" fill="#1A1152" />
<rect x="204" y="6" width="6" height="18" fill="#19104F" />
<rect x="222" y="6" width="6" height="12" fill="#160F47" />
<rect x="234" y="6" width="6" height="12" fill="#140D42" />
<rect x="246" y="6" width="6" height="18" fill="#130C3C" />
<rect x="264" y="6" width="6" height="12" fill="#100B34" />
<rect x="276" y="6" width="6" height="6" fill="#0E092F" />
<rect x="288" y="6" width="6" height="12" fill="#0D0829" />
<rect x="306" y="6" width="6" height="12" fill="#0A0721" />
<rect x="318" y="6" width="6" height="6" fill="#08051C" />
<rect x="330" y="6" width="6" height="6" fill="#070416" />
<rect x="348" y="6" width="6" height="12" fill="#04030E" />
<rect x="354" y="6" width="6" height="18" fill="#03020B" />
<rect x="360" y="6" width="6" height="6" fill="#020109" />
<rect x="372" y="6" width="6" height="12" fill="#010003" />
<rect x="66" y="12" width="6" height="6" fill="#2C1D8E" />
<rect x="78" y="12" width="6" height="12" fill="#2B1C88" />
<rect x="90" y="12" width="6" height="6" fill="#C8C8C8" />
<rect x="102" y="12" width="6" height="18" fill="#271A7D" />
<rect x="120" y="12" width="6" height="12" fill="#251875" />
<rect x="126" y="12" width="6" height="12" fill="#241872" />
<rect x="144" y="12" width="6" height="18" fill="#21166A" />
<rect x="168" y="12" width="6" height="18" fill="#1E145F" />
<rect x="180" y="12" width="12" height="6" fill="#1B1256" />
<rect x="198" y="12" width="6" height="6" fill="#191152" />
<rect x="210" y="12" width="6" height="18" fill="#18104C" />
<rect x="228" y="12" width="6" height="6" fill="#150E44" />
<rect x="240" y="12" width="6" height="6" fill="#130D3F" />
<rect x="252" y="12" width="6" height="18" fill="#120C39" />
<rect x="270" y="12" width="6" height="18" fill="#0F0A31" />
<rect x="276" y="12" width="6" height="18" fill="#0E092E" />
<rect x="282" y="12" width="6" height="6" fill="#0D092C" />
<rect x="294" y="12" width="6" height="18" fill="#0C0826" />
<rect x="312" y="12" width="6" height="6" fill="#09061C" />
<rect x="318" y="12" width="18" height="6" fill="#6C6C6C" />
<rect x="336" y="12" width="6" height="6" fill="#09061C" />
<rect x="360" y="12" width="6" height="18" fill="#020108" />
<rect x="366" y="12" width="6" height="6" fill="#010106" />
<rect x="378" y="12" width="6" height="96" fill="#000000" />
<rect x="60" y="18" width="6" height="6" fill="#B8B840" />
<rect x="66" y="18" width="6" height="6" fill="#2C1D8D" />
<rect x="72" y="18" width="6" height="6" fill="#B8B840" />
<rect x="84" y="18" width="6" height="12" fill="#2A1C85" />
<rect x="90" y="18" width="6" height="18" fill="#291B82" />
<rect x="96" y="18" width="6" height="6" fill="#281A80" />
<rect x="108" y="18" width="6" height="18" fill="#26197A" />
<rect x="114" y="18" width="6" height="6" fill="#251978" />
<rect x="132" y="18" width="6" height="18" fill="#23176F" />
<rect x="138" y="18" width="6" height="6" fill="#22166D" />
<rect x="150" y="18" width="6" height="18" fill="#201567" />
<rect x="156" y="18" width="6" height="6" fill="#1F1565" />
<rect x="180" y="18" width="6" height="18" fill="#1D135D" />
<rect x="186" y="18" width="6" height="30" fill="#1B1256" />
<rect x="192" y="18" width="6" height="18" fill="#1A1154" />
<rect x="198" y="18" width="6" height="18" fill="#191151" />
<rect x="216" y="18" width="6" height="18" fill="#170F49" />
<rect x="222" y="18" width="6" height="6" fill="#160E47" />
<rect x="228" y="18" width="6" height="6" fill="#C8C8C8" />
<rect x="234" y="18" width="6" height="12" fill="#140D41" />
<rect x="240" y="18" width="6" height="18" fill="#130D3E" />
<rect x="258" y="18" width="6" height="18" fill="#110B36" />
<rect x="264" y="18" width="6" height="6" fill="#100A34" />
<rect x="282" y="18" width="6" height="18" fill="#0D092B" />
<rect x="288" y="18" width="6" height="6" fill="#C8C8C8" />
<rect x="300" y="18" width="6" height="18" fill="#0B0723" />
<rect x="306" y="18" width="6" height="6" fill="#0A0621" />
<rect x="312" y="18" width="6" height="18" fill="#6C6C6C" />
<rect x="318" y="18" width="18" height="18" fill="#C8C8C8" />
<rect x="336" y="18" width="6" height="18" fill="#6C6C6C" />
<rect x="342" y="18" width="6" height="18" fill="#050310" />
<rect x="348" y="18" width="6" height="18" fill="#04020D" />
<rect x="366" y="18" width="6" height="18" fill="#010105" />
<rect x="372" y="18" width="6" height="6" fill="#000003" />
<rect x="60" y="24" width="6" height="6" fill="#2D1E91" />
<rect x="66" y="24" width="6" height="6" fill="#B8B840" />
<rect x="72" y="24" width="6" height="6" fill="#2B1D8A" />
<rect x="78" y="24" width="6" height="6" fill="#2A1C88" />
<rect x="96" y="24" width="6" height="18" fill="#281A7F" />
<rect x="114" y="24" width="6" height="18" fill="#251977" />
<rect x="120" y="24" width="6" height="18" fill="#241874" />
<rect x="126" y="24" width="6" height="6" fill="#C8C8C8" />
<rect x="138" y="24" width="6" height="18" fill="#22166C" />
<rect x="156" y="24" width="6" height="12" fill="#1F1564" />
<rect x="162" y="24" width="6" height="18" fill="#1E1461" />
<rect x="204" y="24" width="6" height="18" fill="#18104E" />
<rect x="222" y="24" width="6" height="18" fill="#160E46" />
<rect x="228" y="24" width="6" height="6" fill="#150E44" />
<rect x="246" y="24" width="6" height="18" fill="#120C3B" />
<rect x="264" y="24" width="6" height="12" fill="#100A33" />
<rect x="288" y="24" width="6" height="18" fill="#0C0828" />
<rect x="306" y="24" width="6" height="12" fill="#0A0620" />
<rect x="354" y="24" width="6" height="18" fill="#03020A" />
<rect x="372" y="24" width="6" height="18" fill="#000002" />
<rect x="0" y="30" width="6" height="78" fill="#302098" />
<rect x="6" y="30" width="6" height="6" fill="#C8C8C8" />
<rect x="12" y="30" width="36" height="6" fill="#302098" />
<rect x="48" y="30" width="6" height="6" fill="#2F1F95" />
<rect x="54" y="30" width="6" height="12" fill="#2E1E92" />
<rect x="60" y="30" width="6" height="6" fill="#B8B840" />
<rect x="66" y="30" width="6" height="12" fill="#003C00" />
<rect x="72" y="30" width="6" height="6" fill="#B8B840" />
<rect x="78" y="30" width="6" height="12" fill="#2A1C87" />
<rect x="84" y="30" width="6" height="18" fill="#291B84" />
<rect x="102" y="30" width="6" height="18" fill="#271A7C" />
<rect x="126" y="30" width="6" height="18" fill="#231771" />
<rect x="144" y="30" width="6" height="18" fill="#211669" />
<rect x="168" y="30" width="6" height="18" fill="#1D135E" />
<rect x="174" y="30" width="6" height="6" fill="#1D135C" />
<rect x="210" y="30" width="6" height="18" fill="#170F4B" />
<rect x="228" y="30" width="6" height="18" fill="#150E43" />
<rect x="234" y="30" width="6" height="18" fill="#140D40" />
<rect x="252" y="30" width="6" height="6" fill="#110B38" />
<rect x="270" y="30" width="6" height="12" fill="#0F0A30" />
<rect x="276" y="30" width="6" height="18" fill="#0E092D" />
<rect x="294" y="30" width="6" height="18" fill="#0B0725" />
<rect x="360" y="30" width="6" height="12" fill="#020107" />
<rect x="6" y="36" width="36" height="18" fill="#302098" />
<rect x="42" y="36" width="6" height="12" fill="#2F1F97" />
<rect x="48" y="36" width="6" height="6" fill="#2F1F94" />
<rect x="60" y="36" width="6" height="12" fill="#003C00" />
<rect x="72" y="36" width="6" height="6" fill="#C8C8C8" />
<rect x="90" y="36" width="6" height="6" fill="#291B81" />
<rect x="108" y="36" width="6" height="12" fill="#261979" />
<rect x="132" y="36" width="6" height="6" fill="#23176E" />
<rect x="150" y="36" width="6" height="6" fill="#C8C8C8" />
<rect x="156" y="36" width="6" height="6" fill="#1F1563" />
<rect x="174" y="36" width="6" height="18" fill="#1C135B" />
<rect x="180" y="36" width="6" height="6" fill="#1C1259" />
<rect x="192" y="36" width="6" height="12" fill="#1A1153" />
<rect x="198" y="36" width="6" height="6" fill="#191150" />
<rect x="216" y="36" width="6" height="18" fill="#160F48" />
<rect x="240" y="36" width="6" height="6" fill="#130D3D" />
<rect x="252" y="36" width="6" height="6" fill="#C8C8C8" />
<rect x="258" y="36" width="6" height="6" fill="#6C6C6C" />
<rect x="264" y="36" width="6" height="6" fill="#C8C8C8" />
<rect x="282" y="36" width="6" height="6" fill="#0D092A" />
<rect x="300" y="36" width="6" height="18" fill="#0A0722" />
<rect x="306" y="36" width="6" height="6" fill="#0A061F" />
<rect x="312" y="36" width="6" height="18" fill="#09061C" />
<rect x="318" y="36" width="18" height="6" fill="#6C6C6C" />
<rect x="336" y="36" width="6" height="6" fill="#09061C" />
<rect x="342" y="36" width="6" height="12" fill="#04030F" />
<rect x="348" y="36" width="6" height="6" fill="#04020C" />
<rect x="366" y="36" width="6" height="6" fill="#010104" />
<rect x="48" y="42" width="6" height="6" fill="#2E1F94" />
<rect x="54" y="42" width="6" height="12" fill="#003C00" />
<rect x="66" y="42" width="6" height="6" fill="#880000" />
<rect x="72" y="42" width="12" height="6" fill="#003C00" />
<rect x="90" y="42" width="6" height="12" fill="#281B81" />
<rect x="96" y="42" width="6" height="6" fill="#281A7E" />
<rect x="114" y="42" width="6" height="12" fill="#251876" />
<rect x="120" y="42" width="6" height="18" fill="#241873" />
<rect x="132" y="42" width="6" height="12" fill="#22176E" />
<rect x="138" y="42" width="6" height="6" fill="#22166B" />
<rect x="150" y="42" width="6" height="12" fill="#201566" />
<rect x="156" y="42" width="6" height="12" fill="#1F1463" />
<rect x="162" y="42" width="6" height="18" fill="#1E1460" />
<rect x="180" y="42" width="6" height="6" fill="#1C1258" />
<rect x="198" y="42" width="6" height="12" fill="#191050" />
<rect x="204" y="42" width="6" height="18" fill="#18104D" />
<rect x="222" y="42" width="6" height="6" fill="#160E45" />
<rect x="240" y="42" width="6" height="12" fill="#130C3D" />
<rect x="246" y="42" width="6" height="18" fill="#C8C8C8" />
<rect x="252" y="42" width="6" height="6" fill="#6C6C6C" />
<rect x="258" y="42" width="6" height="12" fill="#C8C8C8" />
<rect x="264" y="42" width="6" height="6" fill="#6C6C6C" />
<rect x="270" y="42" width="6" height="6" fill="#C8C8C8" />
<rect x="282" y="42" width="6" height="12" fill="#0D082A" />
<rect x="288" y="42" width="6" height="18" fill="#0C0827" />
<rect x="306" y="42" width="6" height="12" fill="#09061F" />
<rect x="318" y="42" width="6" height="6" fill="#08051A" />
<rect x="324" y="42" width="6" height="12" fill="#070417" />
<rect x="330" y="42" width="6" height="18" fill="#060414" />
<rect x="336" y="42" width="6" height="6" fill="#050312" />
<rect x="348" y="42" width="6" height="12" fill="#03020C" />
<rect x="354" y="42" width="6" height="12" fill="#030209" />
<rect x="360" y="42" width="6" height="6" fill="#C8C8C8" />
<rect x="366" y="42" width="6" height="12" fill="#010004" />
<rect x="372" y="42" width="6" height="18" fill="#000001" />
<rect x="42" y="48" width="6" height="18" fill="#2F1F96" />
<rect x="48" y="48" width="6" height="6" fill="#003C00" />
<rect x="60" y="48" width="6" height="6" fill="#C8C8C8" />
<rect x="66" y="48" width="12" height="6" fill="#003C00" />
<rect x="78" y="48" width="6" height="6" fill="#C8C8C8" />
<rect x="84" y="48" width="6" height="6" fill="#003C00" />
<rect x="96" y="48" width="6" height="6" fill="#271A7E" />
<rect x="102" y="48" width="12" height="24" fill="#271A7B" />
<rect x="126" y="48" width="6" height="18" fill="#231770" />
<rect x="138" y="48" width="6" height="12" fill="#21166B" />
<rect x="144" y="48" width="6" height="6" fill="#211668" />
<rect x="168" y="48" width="6" height="18" fill="#1D135D" />
<rect x="180" y="48" width="6" height="6" fill="#1B1258" />
<rect x="186" y="48" width="6" height="6" fill="#1B1255" />
<rect x="192" y="48" width="6" height="12" fill="#1A1152" />
<rect x="210" y="48" width="6" height="18" fill="#170F4A" />
<rect x="222" y="48" width="6" height="12" fill="#150E45" />
<rect x="228" y="48" width="6" height="6" fill="#150E42" />
<rect x="234" y="48" width="6" height="6" fill="#140D3F" />
<rect x="252" y="48" width="6" height="6" fill="#C8C8C8" />
<rect x="264" y="48" width="6" height="24" fill="#000000" />
<rect x="270" y="48" width="6" height="6" fill="#6C6C6C" />
<rect x="276" y="48" width="6" height="6" fill="#C8C8C8" />
<rect x="294" y="48" width="6" height="18" fill="#0B0724" />
<rect x="318" y="48" width="6" height="12" fill="#080519" />
<rect x="336" y="48" width="6" height="36" fill="#050311" />
<rect x="342" y="48" width="6" height="18" fill="#04030E" />
<rect x="360" y="48" width="6" height="12" fill="#020106" />
<rect x="6" y="54" width="6" height="42" fill="#302098" />
<rect x="12" y="54" width="6" height="6" fill="#C8C8C8" />
<rect x="18" y="54" width="24" height="24" fill="#302098" />
<rect x="48" y="54" width="6" height="12" fill="#2E1F93" />
<rect x="54" y="54" width="6" height="6" fill="#880000" />
<rect x="60" y="54" width="12" height="6" fill="#003C00" />
<rect x="72" y="54" width="6" height="6" fill="#C8C8C8" />
<rect x="78" y="54" width="6" height="6" fill="#2A1C86" />
<rect x="84" y="54" width="6" height="12" fill="#291B83" />
<rect x="90" y="54" width="6" height="12" fill="#281B80" />
<rect x="96" y="54" width="6" height="18" fill="#281A7E" />
<rect x="114" y="54" width="6" height="18" fill="#251875" />
<rect x="132" y="54" width="6" height="12" fill="#22176D" />
<rect x="144" y="54" width="6" height="12" fill="#201568" />
<rect x="150" y="54" width="6" height="6" fill="#201565" />
<rect x="156" y="54" width="6" height="18" fill="#1F1462" />
<rect x="174" y="54" width="6" height="12" fill="#1C135A" />
<rect x="180" y="54" width="6" height="6" fill="#C8C8C8" />
<rect x="186" y="54" width="6" height="6" fill="#1A1155" />
<rect x="198" y="54" width="6" height="18" fill="#19104F" />
<rect x="216" y="54" width="6" height="12" fill="#160F47" />
<rect x="228" y="54" width="6" height="6" fill="#140D42" />
<rect x="234" y="54" width="12" height="6" fill="#C8C8C8" />
<rect x="252" y="54" width="12" height="18" fill="#000000" />
<rect x="270" y="54" width="6" height="18" fill="#000000" />
<rect x="276" y="54" width="6" height="6" fill="#6C6C6C" />
<rect x="282" y="54" width="6" height="6" fill="#C8C8C8" />
<rect x="300" y="54" width="6" height="12" fill="#0A0721" />
<rect x="306" y="54" width="6" height="18" fill="#09061E" />
<rect x="312" y="54" width="6" height="6" fill="#08051C" />
<rect x="324" y="54" width="6" height="12" fill="#070416" />
<rect x="348" y="54" width="6" height="12" fill="#03020B" />
<rect x="354" y="54" width="6" height="6" fill="#020109" />
<rect x="366" y="54" width="6" height="12" fill="#010003" />
<rect x="12" y="60" width="6" height="48" fill="#302098" />
<rect x="54" y="60" width="6" height="6" fill="#003C00" />
<rect x="60" y="60" width="12" height="6" fill="#C8C8C8" />
<rect x="72" y="60" width="12" height="12" fill="#003C00" />
<rect x="120" y="60" width="6" height="18" fill="#241872" />
<rect x="138" y="60" width="6" height="18" fill="#21166A" />
<rect x="150" y="60" width="6" height="6" fill="#1F1565" />
<rect x="162" y="60" width="6" height="18" fill="#1E145F" />
<rect x="180" y="60" width="6" height="30" fill="#1B1257" />
<rect x="186" y="60" width="6" height="30" fill="#1A1154" />
<rect x="192" y="60" width="6" height="6" fill="#191152" />
<rect x="204" y="60" width="6" height="18" fill="#18104C" />
<rect x="222" y="60" width="6" height="6" fill="#150E44" />
<rect x="228" y="60" width="12" height="6" fill="#C8C8C8" />
<rect x="240" y="60" width="12" height="18" fill="#000000" />
<rect x="276" y="60" width="12" height="24" fill="#000000" />
<rect x="288" y="60" width="6" height="6" fill="#C8C8C8" />
<rect x="312" y="60" width="6" height="12" fill="#08051B" />
<rect x="318" y="60" width="6" height="6" fill="#070519" />
<rect x="330" y="60" width="6" height="18" fill="#060413" />
<rect x="354" y="60" width="6" height="18" fill="#020108" />
<rect x="360" y="60" width="6" height="6" fill="#010106" />
<rect x="372" y="60" width="6" height="24" fill="#000000" />
<rect x="42" y="66" width="6" height="6" fill="#2F1F95" />
<rect x="48" y="66" width="6" height="6" fill="#003C00" />
<rect x="54" y="66" width="6" height="6" fill="#C8C8C8" />
<rect x="60" y="66" width="6" height="6" fill="#880000" />
<rect x="66" y="66" width="6" height="6" fill="#003C00" />
<rect x="84" y="66" width="6" height="6" fill="#C8C8C8" />
<rect x="90" y="66" width="6" height="6" fill="#281A80" />
<rect x="126" y="66" width="6" height="18" fill="#23176F" />
<rect x="132" y="66" width="6" height="6" fill="#22166D" />
<rect x="144" y="66" width="6" height="12" fill="#201567" />
<rect x="150" y="66" width="6" height="18" fill="#1F1564" />
<rect x="168" y="66" width="6" height="18" fill="#1D135C" />
<rect x="174" y="66" width="6" height="6" fill="#1C125A" />
<rect x="192" y="66" width="6" height="6" fill="#191151" />
<rect x="210" y="66" width="6" height="6" fill="#170F49" />
<rect x="216" y="66" width="18" height="6" fill="#C8C8C8" />
<rect x="234" y="66" width="6" height="6" fill="#6C6C6C" />
<rect x="288" y="66" width="6" height="6" fill="#6C6C6C" />
<rect x="294" y="66" width="6" height="6" fill="#C8C8C8" />
<rect x="300" y="66" width="6" height="6" fill="#0A0620" />
<rect x="318" y="66" width="6" height="18" fill="#070518" />
<rect x="324" y="66" width="6" height="6" fill="#060416" />
<rect x="342" y="66" width="12" height="6" fill="#050311" />
<rect x="360" y="66" width="6" height="18" fill="#010105" />
<rect x="366" y="66" width="6" height="6" fill="#000003" />
<rect x="42" y="72" width="6" height="12" fill="#003C00" />
<rect x="48" y="72" width="6" height="6" fill="#C8C8C8" />
<rect x="54" y="72" width="12" height="6" fill="#003C00" />
<rect x="66" y="72" width="12" height="6" fill="#C8C8C8" />
<rect x="78" y="72" width="6" height="6" fill="#880000" />
<rect x="84" y="72" width="12" height="12" fill="#003C00" />
<rect x="96" y="72" width="6" height="6" fill="#271A7D" />
<rect x="102" y="72" width="6" height="12" fill="#26197A" />
<rect x="108" y="72" width="6" height="6" fill="#271A7B" />
<rect x="114" y="72" width="6" height="18" fill="#241874" />
<rect x="132" y="72" width="6" height="18" fill="#22166C" />
<rect x="156" y="72" width="6" height="18" fill="#1E1461" />
<rect x="174" y="72" width="6" height="12" fill="#1C1259" />
<rect x="192" y="72" width="6" height="24" fill="#1A1154" />
<rect x="198" y="72" width="6" height="18" fill="#18104E" />
<rect x="210" y="72" width="6" height="12" fill="#C8C8C8" />
<rect x="216" y="72" width="6" height="6" fill="#6C6C6C" />
<rect x="222" y="72" width="6" height="6" fill="#C8C8C8" />
<rect x="228" y="72" width="6" height="6" fill="#6C6C6C" />
<rect x="234" y="72" width="6" height="12" fill="#000000" />
<rect x="252" y="72" width="24" height="6" fill="#6C6C6C" />
<rect x="288" y="72" width="12" height="12" fill="#000000" />
<rect x="300" y="72" width="18" height="6" fill="#C8C8C8" />
<rect x="324" y="72" width="6" height="18" fill="#060415" />
<rect x="342" y="72" width="6" height="6" fill="#C8C8C8" />
<rect x="348" y="72" width="6" height="12" fill="#050311" />
<rect x="366" y="72" width="6" height="18" fill="#000002" />
<rect x="18" y="78" width="18" height="30" fill="#302098" />
<rect x="36" y="78" width="6" height="6" fill="#003C00" />
<rect x="48" y="78" width="12" height="6" fill="#003C00" />
<rect x="60" y="78" width="6" height="6" fill="#C8C8C8" />
<rect x="66" y="78" width="18" height="6" fill="#003C00" />
<rect x="96" y="78" width="6" height="6" fill="#003C00" />
<rect x="108" y="78" width="6" height="6" fill="#251977" />
<rect x="120" y="78" width="6" height="18" fill="#231771" />
<rect x="138" y="78" width="6" height="6" fill="#211669" />
<rect x="144" y="78" width="6" height="18" fill="#201566" />
<rect x="162" y="78" width="6" height="18" fill="#1D135E" />
<rect x="204" y="78" width="6" height="6" fill="#170F4B" />
<rect x="216" y="78" width="6" height="6" fill="#C8C8C8" />
<rect x="222" y="78" width="12" height="6" fill="#000000" />
<rect x="240" y="78" width="6" height="6" fill="#000000" />
<rect x="246" y="78" width="6" height="12" fill="#6C6C6C" />
<rect x="252" y="78" width="18" height="18" fill="#442800" />
<rect x="270" y="78" width="6" height="12" fill="#6C6C6C" />
<rect x="300" y="78" width="6" height="12" fill="#6C6C6C" />
<rect x="306" y="78" width="6" height="12" fill="#09061D" />
<rect x="312" y="78" width="6" height="18" fill="#08051A" />
<rect x="330" y="78" width="6" height="12" fill="#050312" />
<rect x="342" y="78" width="6" height="6" fill="#050311" />
<rect x="354" y="78" width="6" height="18" fill="#020107" />
<rect x="36" y="84" width="12" height="18" fill="#2E1F94" />
<rect x="48" y="84" width="6" height="6" fill="#2E1E92" />
<rect x="54" y="84" width="6" height="12" fill="#2D1E8F" />
<rect x="60" y="84" width="18" height="6" fill="#2C3000" />
<rect x="78" y="84" width="6" height="12" fill="#291B84" />
<rect x="84" y="84" width="6" height="6" fill="#291B81" />
<rect x="90" y="84" width="6" height="6" fill="#281A7F" />
<rect x="96" y="84" width="6" height="12" fill="#271A7C" />
<rect x="102" y="84" width="6" height="12" fill="#261979" />
<rect x="108" y="84" width="6" height="6" fill="#251976" />
<rect x="126" y="84" width="6" height="18" fill="#22176E" />
<rect x="138" y="84" width="6" height="6" fill="#C8C8C8" />
<rect x="150" y="84" width="6" height="6" fill="#1F1563" />
<rect x="168" y="84" width="6" height="18" fill="#1C135B" />
<rect x="174" y="84" width="6" height="6" fill="#1B1257" />
<rect x="204" y="84" width="6" height="12" fill="#C8C8C8" />
<rect x="210" y="84" width="6" height="18" fill="#160F48" />
<rect x="216" y="84" width="30" height="6" fill="#6C6C6C" />
<rect x="276" y="84" width="24" height="6" fill="#6C6C6C" />
<rect x="318" y="84" width="6" height="6" fill="#070517" />
<rect x="336" y="84" width="6" height="12" fill="#04030F" />
<rect x="342" y="84" width="6" height="6" fill="#04020C" />
<rect x="348" y="84" width="6" height="6" fill="#03020A" />
<rect x="360" y="84" width="6" height="18" fill="#010004" />
<rect x="372" y="84" width="6" height="6" fill="#C8C8C8" />
<rect x="48" y="90" width="6" height="6" fill="#2E1E91" />
<rect x="60" y="90" width="18" height="18" fill="#442800" />
<rect x="84" y="90" width="6" height="12" fill="#281B81" />
<rect x="90" y="90" width="6" height="6" fill="#281A7E" />
<rect x="108" y="90" width="6" height="12" fill="#251876" />
<rect x="114" y="90" width="6" height="6" fill="#C8C8C8" />
<rect x="132" y="90" width="6" height="6" fill="#22166B" />
<rect x="138" y="90" width="6" height="6" fill="#211669" />
<rect x="150" y="90" width="6" height="12" fill="#1F1463" />
<rect x="156" y="90" width="6" height="18" fill="#1E1460" />
<rect x="174" y="90" width="6" height="6" fill="#1C1258" />
<rect x="180" y="90" width="6" height="12" fill="#1B1255" />
<rect x="186" y="90" width="6" height="6" fill="#1A1153" />
<rect x="198" y="90" width="6" height="18" fill="#18104D" />
<rect x="216" y="90" width="6" height="6" fill="#160E45" />
<rect x="222" y="90" width="6" height="12" fill="#150E42" />
<rect x="228" y="90" width="6" height="6" fill="#140D40" />
<rect x="234" y="90" width="6" height="18" fill="#442800" />
<rect x="240" y="90" width="6" height="6" fill="#B0B0B0" />
<rect x="246" y="90" width="6" height="6" fill="#7CB4D4" />
<rect x="270" y="90" width="6" height="6" fill="#7CB4D4" />
<rect x="276" y="90" width="6" height="6" fill="#B0B0B0" />
<rect x="282" y="90" width="6" height="18" fill="#442800" />
<rect x="288" y="90" width="6" height="6" fill="#0B0725" />
<rect x="294" y="90" width="6" height="6" fill="#0A0722" />
<rect x="300" y="90" width="6" height="12" fill="#09061F" />
<rect x="306" y="90" width="6" height="12" fill="#09061C" />
<rect x="318" y="90" width="6" height="12" fill="#070417" />
<rect x="324" y="90" width="6" height="18" fill="#060414" />
<rect x="330" y="90" width="6" height="18" fill="#050311" />
<rect x="342" y="90" width="6" height="12" fill="#03020C" />
<rect x="348" y="90" width="6" height="6" fill="#030209" />
<rect x="366" y="90" width="6" height="12" fill="#000001" />
<rect x="372" y="90" width="6" height="18" fill="#000000" />
<rect x="6" y="96" width="6" height="6" fill="#C8C8C8" />
<rect x="48" y="96" width="6" height="12" fill="#2D1E91" />
<rect x="54" y="96" width="6" height="6" fill="#2D1E8E" />
<rect x="78" y="96" width="6" height="12" fill="#291B83" />
<rect x="90" y="96" width="6" height="12" fill="#271A7E" />
<rect x="96" y="96" width="6" height="6" fill="#271A7B" />
<rect x="102" y="96" width="6" height="12" fill="#261978" />
<rect x="114" y="96" width="6" height="12" fill="#241873" />
<rect x="120" y="96" width="6" height="12" fill="#231770" />
<rect x="132" y="96" width="6" height="12" fill="#21166B" />
<rect x="138" y="96" width="6" height="6" fill="#211668" />
<rect x="144" y="96" width="6" height="12" fill="#201565" />
<rect x="162" y="96" width="6" height="12" fill="#1D135D" />
<rect x="174" y="96" width="6" height="12" fill="#1B1258" />
<rect x="186" y="96" width="6" height="12" fill="#C8C8C8" />
<rect x="192" y="96" width="6" height="6" fill="#191050" />
<rect x="204" y="96" width="6" height="12" fill="#170F4A" />
<rect x="216" y="96" width="6" height="6" fill="#150E45" />
<rect x="228" y="96" width="6" height="12" fill="#140D3F" />
<rect x="240" y="96" width="6" height="6" fill="#7CB4D4" />
<rect x="246" y="96" width="6" height="6" fill="#B0B0B0" />
<rect x="252" y="96" width="6" height="12" fill="#442800" />
<rect x="258" y="96" width="6" height="12" fill="#846830" />
<rect x="264" y="96" width="6" height="12" fill="#442800" />
<rect x="270" y="96" width="6" height="6" fill="#B0B0B0" />
<rect x="276" y="96" width="6" height="6" fill="#7CB4D4" />
<rect x="288" y="96" width="6" height="12" fill="#0B0724" />
<rect x="294" y="96" width="6" height="12" fill="#0A0721" />
<rect x="312" y="96" width="6" height="12" fill="#080519" />
<rect x="336" y="96" width="6" height="6" fill="#C8C8C8" />
<rect x="348" y="96" width="6" height="12" fill="#020109" />
<rect x="354" y="96" width="6" height="12" fill="#020106" />
<rect x="6" y="102" width="6" height="6" fill="#302098" />
<rect x="36" y="102" width="6" height="6" fill="#2F1F96" />
<rect x="42" y="102" width="6" height="6" fill="#2E1F93" />
<rect x="54" y="102" width="6" height="6" fill="#2C1D8E" />
<rect x="84" y="102" width="6" height="6" fill="#281B80" />
<rect x="96" y="102" width="6" height="6" fill="#26197B" />
<rect x="108" y="102" width="6" height="6" fill="#251875" />
<rect x="126" y="102" width="6" height="6" fill="#22176D" />
<rect x="138" y="102" width="6" height="6" fill="#201568" />
<rect x="150" y="102" width="6" height="6" fill="#1F1462" />
<rect x="168" y="102" width="6" height="6" fill="#1C135A" />
<rect x="180" y="102" width="6" height="6" fill="#C8C8C8" />
<rect x="192" y="102" width="6" height="6" fill="#C8C8C8" />
<rect x="210" y="102" width="6" height="6" fill="#160F47" />
<rect x="216" y="102" width="6" height="6" fill="#150E44" />
<rect x="222" y="102" width="6" height="6" fill="#140D42" />
<rect x="240" y="102" width="12" height="6" fill="#442800" />
<rect x="270" y="102" width="12" height="6" fill="#442800" />
<rect x="300" y="102" width="6" height="6" fill="#09061E" />
<rect x="306" y="102" width="6" height="6" fill="#08051C" />
<rect x="318" y="102" width="6" height="6" fill="#070416" />
<rect x="336" y="102" width="6" height="6" fill="#04030E" />
<rect x="342" y="102" width="6" height="6" fill="#03020B" />
<rect x="360" y="102" width="6" height="6" fill="#010003" />
<rect x="366" y="102" width="6" height="6" fill="#000000" />
</svg>